<mxfile host="app.diagrams.net" agent="Mozilla/5.0 (Macintosh; Intel Mac OS X 10_15_7) AppleWebKit/537.36 (KHTML, like Gecko) Chrome/138.0.0.0 Safari/537.36" version="28.0.7">
  <diagram name="ページ1" id="ixvMhUvqegZui-Gaf56H">
    <mxGraphModel dx="926" dy="566" grid="1" gridSize="10" guides="1" tooltips="1" connect="1" arrows="1" fold="1" page="1" pageScale="1" pageWidth="827" pageHeight="1169" math="0" shadow="0">
      <root>
        <mxCell id="0" />
        <mxCell id="1" parent="0" />
        <mxCell id="TwlCqmL6k3qDxNwziJxh-1" value="audio play" style="swimlane;childLayout=stackLayout;resizeParent=1;resizeParentMax=0;startSize=20;html=1;rounded=1;" vertex="1" parent="1">
          <mxGeometry x="80" y="40" width="450" height="690" as="geometry" />
        </mxCell>
        <mxCell id="TwlCqmL6k3qDxNwziJxh-2" value="User" style="swimlane;startSize=20;html=1;rounded=1;" vertex="1" parent="TwlCqmL6k3qDxNwziJxh-1">
          <mxGeometry y="20" width="140" height="670" as="geometry" />
        </mxCell>
        <mxCell id="TwlCqmL6k3qDxNwziJxh-6" value="詳細画面を開く" style="ellipse;whiteSpace=wrap;html=1;rounded=1;" vertex="1" parent="TwlCqmL6k3qDxNwziJxh-2">
          <mxGeometry x="35" y="40" width="70" height="70" as="geometry" />
        </mxCell>
        <mxCell id="TwlCqmL6k3qDxNwziJxh-11" value="音声再生ボタンを押下" style="whiteSpace=wrap;html=1;rounded=1;" vertex="1" parent="TwlCqmL6k3qDxNwziJxh-2">
          <mxGeometry x="10" y="140" width="120" height="60" as="geometry" />
        </mxCell>
        <mxCell id="TwlCqmL6k3qDxNwziJxh-3" value="App" style="swimlane;startSize=20;html=1;rounded=1;" vertex="1" parent="TwlCqmL6k3qDxNwziJxh-1">
          <mxGeometry x="140" y="20" width="160" height="670" as="geometry" />
        </mxCell>
        <mxCell id="TwlCqmL6k3qDxNwziJxh-7" value="詳細画面を表示" style="whiteSpace=wrap;html=1;rounded=1;" vertex="1" parent="TwlCqmL6k3qDxNwziJxh-3">
          <mxGeometry x="20" y="45" width="120" height="60" as="geometry" />
        </mxCell>
        <mxCell id="TwlCqmL6k3qDxNwziJxh-14" value="クエリを送信" style="whiteSpace=wrap;html=1;rounded=1;" vertex="1" parent="TwlCqmL6k3qDxNwziJxh-3">
          <mxGeometry x="20" y="230" width="120" height="60" as="geometry" />
        </mxCell>
        <mxCell id="TwlCqmL6k3qDxNwziJxh-30" value="Yes" style="edgeStyle=orthogonalEdgeStyle;rounded=1;orthogonalLoop=1;jettySize=auto;html=1;" edge="1" parent="TwlCqmL6k3qDxNwziJxh-3" source="TwlCqmL6k3qDxNwziJxh-20" target="TwlCqmL6k3qDxNwziJxh-25">
          <mxGeometry relative="1" as="geometry" />
        </mxCell>
        <mxCell id="TwlCqmL6k3qDxNwziJxh-34" value="No" style="edgeStyle=orthogonalEdgeStyle;rounded=1;orthogonalLoop=1;jettySize=auto;html=1;exitX=1;exitY=0.5;exitDx=0;exitDy=0;entryX=1;entryY=0.5;entryDx=0;entryDy=0;" edge="1" parent="TwlCqmL6k3qDxNwziJxh-3" source="TwlCqmL6k3qDxNwziJxh-20" target="TwlCqmL6k3qDxNwziJxh-33">
          <mxGeometry relative="1" as="geometry" />
        </mxCell>
        <mxCell id="TwlCqmL6k3qDxNwziJxh-20" value="ファイルを正しく取得できた" style="rhombus;whiteSpace=wrap;html=1;rounded=1;" vertex="1" parent="TwlCqmL6k3qDxNwziJxh-3">
          <mxGeometry x="40" y="330" width="80" height="80" as="geometry" />
        </mxCell>
        <mxCell id="TwlCqmL6k3qDxNwziJxh-25" value="音声を再生" style="ellipse;whiteSpace=wrap;html=1;rounded=1;" vertex="1" parent="TwlCqmL6k3qDxNwziJxh-3">
          <mxGeometry x="45" y="440" width="70" height="70" as="geometry" />
        </mxCell>
        <mxCell id="TwlCqmL6k3qDxNwziJxh-33" value="エラーメッセージを表示" style="ellipse;whiteSpace=wrap;html=1;rounded=1;" vertex="1" parent="TwlCqmL6k3qDxNwziJxh-3">
          <mxGeometry x="45" y="550" width="70" height="70" as="geometry" />
        </mxCell>
        <mxCell id="TwlCqmL6k3qDxNwziJxh-4" value="DB" style="swimlane;startSize=20;html=1;rounded=1;" vertex="1" parent="TwlCqmL6k3qDxNwziJxh-1">
          <mxGeometry x="300" y="20" width="150" height="670" as="geometry" />
        </mxCell>
        <mxCell id="TwlCqmL6k3qDxNwziJxh-16" value="&amp;nbsp;DB内を検索し音声ファイルを返す" style="whiteSpace=wrap;html=1;rounded=1;" vertex="1" parent="TwlCqmL6k3qDxNwziJxh-4">
          <mxGeometry x="15" y="230" width="120" height="60" as="geometry" />
        </mxCell>
        <mxCell id="TwlCqmL6k3qDxNwziJxh-8" style="edgeStyle=orthogonalEdgeStyle;rounded=1;orthogonalLoop=1;jettySize=auto;html=1;exitX=1;exitY=0.5;exitDx=0;exitDy=0;" edge="1" parent="TwlCqmL6k3qDxNwziJxh-1" source="TwlCqmL6k3qDxNwziJxh-6" target="TwlCqmL6k3qDxNwziJxh-7">
          <mxGeometry relative="1" as="geometry" />
        </mxCell>
        <mxCell id="TwlCqmL6k3qDxNwziJxh-12" style="edgeStyle=orthogonalEdgeStyle;rounded=1;orthogonalLoop=1;jettySize=auto;html=1;exitX=0.5;exitY=1;exitDx=0;exitDy=0;entryX=1;entryY=0.5;entryDx=0;entryDy=0;" edge="1" parent="TwlCqmL6k3qDxNwziJxh-1" source="TwlCqmL6k3qDxNwziJxh-7" target="TwlCqmL6k3qDxNwziJxh-11">
          <mxGeometry relative="1" as="geometry" />
        </mxCell>
        <mxCell id="TwlCqmL6k3qDxNwziJxh-15" style="edgeStyle=orthogonalEdgeStyle;rounded=1;orthogonalLoop=1;jettySize=auto;html=1;exitX=0.5;exitY=1;exitDx=0;exitDy=0;entryX=0;entryY=0.5;entryDx=0;entryDy=0;" edge="1" parent="TwlCqmL6k3qDxNwziJxh-1" source="TwlCqmL6k3qDxNwziJxh-11" target="TwlCqmL6k3qDxNwziJxh-14">
          <mxGeometry relative="1" as="geometry" />
        </mxCell>
        <mxCell id="TwlCqmL6k3qDxNwziJxh-17" value="" style="edgeStyle=orthogonalEdgeStyle;rounded=1;orthogonalLoop=1;jettySize=auto;html=1;" edge="1" parent="TwlCqmL6k3qDxNwziJxh-1" source="TwlCqmL6k3qDxNwziJxh-14" target="TwlCqmL6k3qDxNwziJxh-16">
          <mxGeometry relative="1" as="geometry" />
        </mxCell>
        <mxCell id="TwlCqmL6k3qDxNwziJxh-22" style="edgeStyle=orthogonalEdgeStyle;rounded=1;orthogonalLoop=1;jettySize=auto;html=1;exitX=0.5;exitY=1;exitDx=0;exitDy=0;" edge="1" parent="TwlCqmL6k3qDxNwziJxh-1" source="TwlCqmL6k3qDxNwziJxh-16" target="TwlCqmL6k3qDxNwziJxh-20">
          <mxGeometry relative="1" as="geometry" />
        </mxCell>
      </root>
    </mxGraphModel>
  </diagram>
</mxfile>
